<svg xmlns="http://www.w3.org/2000/svg" xmlns:xlink="http://www.w3.org/1999/xlink" width="500" zoomAndPan="magnify" viewBox="0 0 375 374.999991" height="500" preserveAspectRatio="xMidYMid meet" version="1.0"><defs><clipPath id="id1"><path d="M 125.882812 94.265625 L 248.882812 94.265625 L 248.882812 235 L 125.882812 235 Z M 125.882812 94.265625 " clip-rule="nonzero"/></clipPath><clipPath id="id2"><path d="M 160 234 L 215 234 L 215 268.265625 L 160 268.265625 Z M 160 234 " clip-rule="nonzero"/></clipPath><clipPath id="id3"><path d="M 125.882812 94.265625 L 248.882812 94.265625 L 248.882812 235 L 125.882812 235 Z M 125.882812 94.265625 " clip-rule="nonzero"/></clipPath><clipPath id="id4"><path d="M 160 234 L 215 234 L 215 268.265625 L 160 268.265625 Z M 160 234 " clip-rule="nonzero"/></clipPath><clipPath id="id5"><path d="M 83.695312 54.324219 L 291.445312 54.324219 L 291.445312 183.324219 L 83.695312 183.324219 Z M 83.695312 54.324219 " clip-rule="nonzero"/></clipPath></defs><g clip-path="url(#id1)"><path fill="#f19e05" d="M 185.242188 140.960938 C 183.464844 141.4375 182.398438 143.285156 182.875 145.066406 L 185.4375 154.65625 C 185.914062 156.4375 187.757812 157.507812 189.535156 157.03125 C 191.3125 156.550781 192.378906 154.703125 191.902344 152.921875 L 189.339844 143.332031 C 188.863281 141.546875 187.019531 140.480469 185.242188 140.960938 Z M 193.964844 140.960938 C 192.1875 141.4375 191.121094 143.285156 191.597656 145.066406 L 194.160156 154.65625 C 194.636719 156.4375 196.480469 157.507812 198.257812 157.03125 C 200.035156 156.550781 201.097656 154.703125 200.621094 152.921875 L 198.0625 143.332031 C 197.582031 141.546875 195.742188 140.480469 193.964844 140.960938 Z M 176.519531 140.960938 C 174.742188 141.4375 173.679688 143.285156 174.15625 145.066406 L 176.71875 154.65625 C 177.191406 156.4375 179.039062 157.507812 180.8125 157.03125 C 182.59375 156.550781 183.65625 154.703125 183.179688 152.921875 L 180.617188 143.332031 C 180.140625 141.546875 178.296875 140.480469 176.519531 140.960938 Z M 187.382812 94.246094 L 187.394531 94.246094 C 221.339844 94.246094 248.855469 121.832031 248.855469 155.867188 C 248.855469 175.199219 240.078125 192.59375 226.074219 203.753906 C 217.296875 210.746094 211.128906 220.160156 209.816406 234.226562 L 202.847656 234.226562 L 213.679688 154.148438 C 213.742188 153.675781 213.773438 153.25 213.773438 152.871094 C 213.773438 150.675781 213 148.679688 211.675781 147.148438 C 210.347656 145.613281 208.488281 144.570312 206.3125 144.273438 C 205.863281 144.214844 205.445312 144.183594 205.058594 144.183594 C 203.402344 144.183594 202.0625 145.527344 202.0625 147.1875 C 202.0625 148.847656 203.402344 150.191406 205.058594 150.191406 C 205.257812 150.191406 205.410156 150.199219 205.515625 150.214844 C 206.195312 150.304688 206.765625 150.617188 207.15625 151.070312 C 207.550781 151.523438 207.78125 152.152344 207.78125 152.871094 C 207.78125 153.066406 207.769531 153.226562 207.753906 153.351562 L 196.820312 234.226562 L 177.960938 234.226562 L 167.023438 153.351562 C 167.007812 153.226562 167 153.066406 167 152.871094 C 167 152.152344 167.230469 151.523438 167.621094 151.070312 C 168.011719 150.617188 168.582031 150.304688 169.261719 150.214844 C 169.371094 150.199219 169.519531 150.191406 169.71875 150.191406 C 171.375 150.191406 172.71875 148.847656 172.71875 147.1875 C 172.71875 145.527344 171.375 144.183594 169.71875 144.183594 C 169.335938 144.183594 168.914062 144.214844 168.46875 144.273438 C 166.292969 144.570312 164.429688 145.613281 163.105469 147.148438 C 161.777344 148.679688 161.003906 150.675781 161.003906 152.871094 C 161.003906 153.25 161.035156 153.675781 161.101562 154.148438 L 171.929688 234.226562 L 164.960938 234.226562 C 163.652344 220.160156 157.480469 210.746094 148.703125 203.753906 C 134.699219 192.59375 125.925781 175.199219 125.925781 155.867188 C 125.925781 121.832031 153.441406 94.246094 187.382812 94.246094 " fill-opacity="1" fill-rule="evenodd"/></g><g clip-path="url(#id2)"><path fill="#002130" d="M 163.992188 255.214844 L 210.789062 255.214844 C 212.695312 255.214844 214.253906 253.652344 214.253906 251.738281 L 214.253906 250.738281 C 214.253906 248.824219 212.695312 247.265625 210.789062 247.265625 L 163.992188 247.265625 C 162.085938 247.265625 160.523438 248.824219 160.523438 250.738281 L 160.523438 251.738281 C 160.523438 253.652344 162.085938 255.214844 163.992188 255.214844 Z M 176.039062 268.25 L 198.742188 268.25 C 203.523438 268.25 207.546875 264.828125 208.492188 260.300781 L 166.285156 260.300781 C 167.230469 264.828125 171.257812 268.25 176.039062 268.25 Z M 209.816406 234.226562 L 210.789062 234.226562 C 212.695312 234.226562 214.253906 235.789062 214.253906 237.699219 L 214.253906 238.703125 C 214.253906 240.613281 212.695312 242.175781 210.789062 242.175781 L 163.992188 242.175781 C 162.085938 242.175781 160.523438 240.613281 160.523438 238.703125 L 160.523438 237.699219 C 160.523438 235.789062 162.085938 234.226562 163.992188 234.226562 L 209.816406 234.226562 " fill-opacity="1" fill-rule="evenodd"/></g><g clip-path="url(#id3)"><path fill="#f19e05" d="M 185.242188 140.960938 C 183.464844 141.4375 182.398438 143.285156 182.875 145.066406 L 185.4375 154.65625 C 185.914062 156.4375 187.757812 157.507812 189.535156 157.03125 C 191.3125 156.550781 192.378906 154.703125 191.902344 152.921875 L 189.339844 143.332031 C 188.863281 141.546875 187.019531 140.480469 185.242188 140.960938 Z M 193.964844 140.960938 C 192.1875 141.4375 191.121094 143.285156 191.597656 145.066406 L 194.160156 154.65625 C 194.636719 156.4375 196.480469 157.507812 198.257812 157.03125 C 200.035156 156.550781 201.097656 154.703125 200.621094 152.921875 L 198.0625 143.332031 C 197.582031 141.546875 195.742188 140.480469 193.964844 140.960938 Z M 176.519531 140.960938 C 174.742188 141.4375 173.679688 143.285156 174.15625 145.066406 L 176.71875 154.65625 C 177.191406 156.4375 179.039062 157.507812 180.8125 157.03125 C 182.59375 156.550781 183.65625 154.703125 183.179688 152.921875 L 180.617188 143.332031 C 180.140625 141.546875 178.296875 140.480469 176.519531 140.960938 Z M 187.382812 94.246094 L 187.394531 94.246094 C 221.339844 94.246094 248.855469 121.832031 248.855469 155.867188 C 248.855469 175.199219 240.078125 192.59375 226.074219 203.753906 C 217.296875 210.746094 211.128906 220.160156 209.816406 234.226562 L 202.847656 234.226562 L 213.679688 154.148438 C 213.742188 153.675781 213.773438 153.25 213.773438 152.871094 C 213.773438 150.675781 213 148.679688 211.675781 147.148438 C 210.347656 145.613281 208.488281 144.570312 206.3125 144.273438 C 205.863281 144.214844 205.445312 144.183594 205.058594 144.183594 C 203.402344 144.183594 202.0625 145.527344 202.0625 147.1875 C 202.0625 148.847656 203.402344 150.191406 205.058594 150.191406 C 205.257812 150.191406 205.410156 150.199219 205.515625 150.214844 C 206.195312 150.304688 206.765625 150.617188 207.15625 151.070312 C 207.550781 151.523438 207.78125 152.152344 207.78125 152.871094 C 207.78125 153.066406 207.769531 153.226562 207.753906 153.351562 L 196.820312 234.226562 L 177.960938 234.226562 L 167.023438 153.351562 C 167.007812 153.226562 167 153.066406 167 152.871094 C 167 152.152344 167.230469 151.523438 167.621094 151.070312 C 168.011719 150.617188 168.582031 150.304688 169.261719 150.214844 C 169.371094 150.199219 169.519531 150.191406 169.71875 150.191406 C 171.375 150.191406 172.71875 148.847656 172.71875 147.1875 C 172.71875 145.527344 171.375 144.183594 169.71875 144.183594 C 169.335938 144.183594 168.914062 144.214844 168.46875 144.273438 C 166.292969 144.570312 164.429688 145.613281 163.105469 147.148438 C 161.777344 148.679688 161.003906 150.675781 161.003906 152.871094 C 161.003906 153.25 161.035156 153.675781 161.101562 154.148438 L 171.929688 234.226562 L 164.960938 234.226562 C 163.652344 220.160156 157.480469 210.746094 148.703125 203.753906 C 134.699219 192.59375 125.925781 175.199219 125.925781 155.867188 C 125.925781 121.832031 153.441406 94.246094 187.382812 94.246094 " fill-opacity="1" fill-rule="evenodd"/></g><g clip-path="url(#id4)"><path fill="#002130" d="M 163.992188 255.214844 L 210.789062 255.214844 C 212.695312 255.214844 214.253906 253.652344 214.253906 251.738281 L 214.253906 250.738281 C 214.253906 248.824219 212.695312 247.265625 210.789062 247.265625 L 163.992188 247.265625 C 162.085938 247.265625 160.523438 248.824219 160.523438 250.738281 L 160.523438 251.738281 C 160.523438 253.652344 162.085938 255.214844 163.992188 255.214844 Z M 176.039062 268.25 L 198.742188 268.25 C 203.523438 268.25 207.546875 264.828125 208.492188 260.300781 L 166.285156 260.300781 C 167.230469 264.828125 171.257812 268.25 176.039062 268.25 Z M 209.816406 234.226562 L 210.789062 234.226562 C 212.695312 234.226562 214.253906 235.789062 214.253906 237.699219 L 214.253906 238.703125 C 214.253906 240.613281 212.695312 242.175781 210.789062 242.175781 L 163.992188 242.175781 C 162.085938 242.175781 160.523438 240.613281 160.523438 238.703125 L 160.523438 237.699219 C 160.523438 235.789062 162.085938 234.226562 163.992188 234.226562 L 209.816406 234.226562 " fill-opacity="1" fill-rule="evenodd"/></g><g clip-path="url(#id5)"><path fill="#f19e05" d="M 143.253906 82.394531 C 143.015625 81.984375 143.160156 81.460938 143.570312 81.222656 C 143.980469 80.988281 144.503906 81.128906 144.742188 81.542969 L 147.707031 86.675781 C 147.945312 87.085938 147.800781 87.613281 147.390625 87.847656 C 146.980469 88.085938 146.457031 87.941406 146.21875 87.53125 Z M 125.339844 96.425781 L 129.53125 100.621094 C 129.871094 100.957031 130.414062 100.957031 130.75 100.621094 C 131.089844 100.285156 131.089844 99.738281 130.75 99.402344 L 126.558594 95.207031 C 126.222656 94.871094 125.675781 94.871094 125.339844 95.207031 C 125.003906 95.546875 125.003906 96.089844 125.339844 96.425781 Z M 111.667969 114.613281 L 116.804688 117.578125 C 117.214844 117.816406 117.742188 117.675781 117.980469 117.265625 C 118.21875 116.851562 118.078125 116.328125 117.664062 116.089844 L 112.527344 113.121094 C 112.117188 112.886719 111.589844 113.027344 111.351562 113.4375 C 111.117188 113.847656 111.257812 114.375 111.667969 114.613281 Z M 103.167969 135.71875 C 102.710938 135.59375 102.4375 135.125 102.558594 134.664062 C 102.683594 134.203125 103.15625 133.933594 103.613281 134.054688 L 109.34375 135.589844 C 109.800781 135.710938 110.074219 136.183594 109.953125 136.644531 C 109.828125 137.101562 109.359375 137.375 108.898438 137.253906 Z M 100.421875 158.304688 C 99.945312 158.304688 99.558594 157.917969 99.558594 157.441406 C 99.558594 156.96875 99.945312 156.582031 100.421875 156.582031 L 106.351562 156.582031 C 106.828125 156.582031 107.214844 156.96875 107.214844 157.441406 C 107.214844 157.917969 106.828125 158.304688 106.351562 158.304688 Z M 103.613281 180.832031 C 103.15625 180.953125 102.683594 180.679688 102.558594 180.222656 C 102.4375 179.761719 102.710938 179.289062 103.167969 179.167969 L 108.898438 177.632812 C 109.359375 177.511719 109.828125 177.78125 109.953125 178.242188 C 110.074219 178.699219 109.800781 179.171875 109.34375 179.296875 Z M 112.523438 201.761719 C 112.113281 202 111.589844 201.855469 111.351562 201.445312 C 111.117188 201.035156 111.257812 200.511719 111.667969 200.273438 L 116.808594 197.308594 C 117.21875 197.074219 117.742188 197.214844 117.980469 197.625 C 118.214844 198.035156 118.074219 198.5625 117.664062 198.796875 Z M 126.558594 219.679688 L 130.75 215.484375 C 131.085938 215.148438 131.085938 214.601562 130.75 214.265625 C 130.414062 213.929688 129.867188 213.929688 129.53125 214.265625 L 125.339844 218.457031 C 125 218.796875 125 219.339844 125.339844 219.679688 C 125.675781 220.015625 126.21875 220.015625 126.558594 219.679688 Z M 144.742188 233.347656 L 147.707031 228.210938 C 147.945312 227.800781 147.804688 227.273438 147.394531 227.039062 C 146.984375 226.800781 146.457031 226.9375 146.21875 227.351562 L 143.253906 232.488281 C 143.015625 232.898438 143.15625 233.425781 143.566406 233.664062 C 143.976562 233.902344 144.503906 233.761719 144.742188 233.347656 Z M 165.847656 241.847656 C 165.726562 242.304688 165.253906 242.578125 164.792969 242.453125 C 164.335938 242.332031 164.0625 241.859375 164.183594 241.402344 L 165.71875 235.671875 C 165.84375 235.210938 166.316406 234.9375 166.773438 235.0625 C 167.234375 235.183594 167.507812 235.65625 167.382812 236.117188 Z M 188.433594 244.59375 C 188.433594 245.070312 188.046875 245.457031 187.574219 245.457031 C 187.097656 245.457031 186.710938 245.070312 186.710938 244.59375 L 186.710938 238.660156 C 186.710938 238.1875 187.097656 237.800781 187.574219 237.800781 C 188.046875 237.800781 188.433594 238.1875 188.433594 238.660156 Z M 210.960938 241.402344 C 211.082031 241.859375 210.8125 242.332031 210.351562 242.453125 C 209.890625 242.578125 209.421875 242.304688 209.296875 241.847656 L 207.761719 236.117188 C 207.640625 235.65625 207.910156 235.183594 208.371094 235.0625 C 208.832031 234.9375 209.304688 235.210938 209.425781 235.671875 Z M 231.894531 232.488281 C 232.128906 232.898438 231.988281 233.421875 231.578125 233.660156 C 231.167969 233.898438 230.640625 233.757812 230.402344 233.347656 L 227.4375 228.210938 C 227.199219 227.800781 227.339844 227.273438 227.753906 227.035156 C 228.164062 226.796875 228.6875 226.9375 228.925781 227.347656 Z M 249.808594 218.457031 L 245.613281 214.261719 C 245.277344 213.925781 244.730469 213.925781 244.394531 214.261719 C 244.058594 214.601562 244.058594 215.144531 244.394531 215.484375 L 248.589844 219.675781 C 248.925781 220.011719 249.46875 220.011719 249.808594 219.675781 C 250.144531 219.339844 250.144531 218.792969 249.808594 218.457031 Z M 263.480469 200.273438 L 258.339844 197.308594 C 257.929688 197.070312 257.40625 197.210938 257.164062 197.621094 C 256.929688 198.03125 257.070312 198.558594 257.480469 198.796875 L 262.617188 201.761719 C 263.027344 202 263.554688 201.859375 263.792969 201.449219 C 264.03125 201.039062 263.890625 200.511719 263.480469 200.273438 Z M 271.976562 179.167969 C 272.4375 179.289062 272.707031 179.761719 272.585938 180.222656 C 272.464844 180.679688 271.992188 180.953125 271.53125 180.832031 L 265.800781 179.296875 C 265.34375 179.171875 265.070312 178.699219 265.191406 178.242188 C 265.316406 177.78125 265.789062 177.511719 266.25 177.632812 Z M 274.722656 156.582031 C 275.199219 156.582031 275.585938 156.96875 275.585938 157.441406 C 275.585938 157.917969 275.199219 158.304688 274.722656 158.304688 L 268.792969 158.304688 C 268.316406 158.304688 267.929688 157.917969 267.929688 157.441406 C 267.929688 156.96875 268.316406 156.582031 268.792969 156.582031 Z M 271.53125 134.054688 C 271.992188 133.933594 272.464844 134.203125 272.585938 134.664062 C 272.707031 135.125 272.4375 135.597656 271.976562 135.71875 L 266.25 137.253906 C 265.789062 137.375 265.316406 137.101562 265.191406 136.644531 C 265.070312 136.183594 265.34375 135.710938 265.800781 135.589844 Z M 262.621094 113.125 C 263.03125 112.886719 263.558594 113.03125 263.792969 113.441406 C 264.027344 113.851562 263.886719 114.375 263.476562 114.613281 L 258.339844 117.578125 C 257.929688 117.8125 257.402344 117.671875 257.167969 117.261719 C 256.929688 116.847656 257.074219 116.324219 257.484375 116.089844 Z M 248.589844 95.210938 L 244.394531 99.402344 C 244.058594 99.738281 244.058594 100.285156 244.394531 100.621094 C 244.730469 100.957031 245.277344 100.957031 245.613281 100.621094 L 249.808594 96.425781 C 250.144531 96.089844 250.144531 95.546875 249.808594 95.210938 C 249.472656 94.871094 248.925781 94.871094 248.589844 95.210938 Z M 230.40625 81.542969 L 227.4375 86.675781 C 227.203125 87.085938 227.34375 87.613281 227.757812 87.847656 C 228.167969 88.085938 228.691406 87.941406 228.925781 87.53125 L 231.894531 82.394531 C 232.128906 81.984375 231.984375 81.460938 231.574219 81.226562 C 231.164062 80.988281 230.640625 81.128906 230.40625 81.542969 Z M 208.382812 72.796875 C 208.507812 72.339844 208.980469 72.066406 209.4375 72.191406 C 209.898438 72.3125 210.167969 72.785156 210.046875 73.242188 L 208.511719 78.972656 C 208.390625 79.429688 207.917969 79.703125 207.457031 79.582031 C 207 79.460938 206.726562 78.988281 206.847656 78.527344 Z M 166.980469 83.914062 C 166.855469 83.457031 167.128906 82.980469 167.589844 82.859375 C 168.046875 82.738281 168.519531 83.011719 168.644531 83.46875 L 170.09375 88.882812 C 170.214844 89.339844 169.941406 89.8125 169.484375 89.9375 C 169.023438 90.058594 168.550781 89.785156 168.429688 89.328125 Z M 148.652344 91.75 L 151.417969 96.542969 C 151.65625 96.953125 152.183594 97.089844 152.59375 96.855469 C 153.003906 96.617188 153.144531 96.089844 152.90625 95.679688 L 150.140625 90.886719 C 149.902344 90.476562 149.375 90.339844 148.964844 90.574219 C 148.554688 90.8125 148.414062 91.339844 148.652344 91.75 Z M 132.972656 104.0625 C 132.636719 103.726562 132.636719 103.179688 132.972656 102.84375 C 133.308594 102.507812 133.855469 102.507812 134.191406 102.84375 L 138.027344 106.679688 C 138.367188 107.019531 138.367188 107.5625 138.027344 107.898438 C 137.691406 108.238281 137.148438 108.238281 136.8125 107.898438 Z M 121.023438 120.011719 L 125.578125 122.640625 C 125.988281 122.875 126.511719 122.734375 126.75 122.324219 C 126.984375 121.914062 126.84375 121.386719 126.433594 121.152344 L 121.878906 118.523438 C 121.464844 118.289062 120.941406 118.429688 120.703125 118.839844 C 120.46875 119.25 120.609375 119.773438 121.023438 120.011719 Z M 113.597656 138.511719 C 113.140625 138.390625 112.867188 137.917969 112.988281 137.460938 C 113.113281 137 113.585938 136.726562 114.042969 136.851562 L 118.941406 138.160156 C 119.398438 138.285156 119.671875 138.757812 119.550781 139.214844 C 119.425781 139.675781 118.953125 139.949219 118.496094 139.824219 Z M 111.21875 158.304688 C 110.742188 158.304688 110.359375 157.917969 110.359375 157.445312 C 110.359375 156.96875 110.742188 156.582031 111.21875 156.582031 L 116.113281 156.582031 C 116.589844 156.582031 116.972656 156.96875 116.972656 157.445312 C 116.972656 157.917969 116.589844 158.304688 116.113281 158.304688 Z M 114.042969 178.035156 C 113.585938 178.160156 113.113281 177.886719 112.988281 177.425781 C 112.867188 176.96875 113.140625 176.496094 113.597656 176.375 L 118.113281 175.164062 C 118.574219 175.039062 119.046875 175.3125 119.167969 175.773438 C 119.289062 176.234375 119.015625 176.703125 118.558594 176.828125 Z M 121.878906 196.363281 L 125.777344 194.117188 C 126.1875 193.878906 126.328125 193.351562 126.089844 192.941406 C 125.851562 192.53125 125.324219 192.390625 124.914062 192.628906 L 121.019531 194.875 C 120.609375 195.113281 120.46875 195.640625 120.707031 196.050781 C 120.941406 196.460938 121.46875 196.601562 121.878906 196.363281 Z M 134.191406 212.042969 C 133.855469 212.378906 133.308594 212.378906 132.972656 212.042969 C 132.636719 211.707031 132.636719 211.160156 132.972656 210.824219 L 136.050781 207.746094 C 136.386719 207.410156 136.933594 207.410156 137.269531 207.746094 C 137.605469 208.082031 137.605469 208.628906 137.269531 208.964844 Z M 150.140625 223.996094 L 152.25 220.34375 C 152.488281 219.933594 152.347656 219.40625 151.9375 219.167969 C 151.527344 218.929688 151 219.070312 150.761719 219.480469 L 148.652344 223.136719 C 148.414062 223.546875 148.554688 224.074219 148.964844 224.3125 C 149.375 224.550781 149.902344 224.410156 150.140625 223.996094 Z M 168.644531 231.417969 C 168.519531 231.875 168.046875 232.148438 167.589844 232.023438 C 167.128906 231.902344 166.855469 231.429688 166.980469 230.972656 L 168.050781 226.976562 C 168.171875 226.515625 168.644531 226.246094 169.105469 226.367188 C 169.5625 226.488281 169.835938 226.960938 169.714844 227.421875 Z M 188.433594 233.796875 C 188.433594 234.273438 188.046875 234.65625 187.574219 234.65625 C 187.097656 234.65625 186.710938 234.273438 186.710938 233.796875 L 186.710938 229.671875 C 186.710938 229.195312 187.097656 228.8125 187.574219 228.8125 C 188.046875 228.8125 188.433594 229.195312 188.433594 229.671875 Z M 208.167969 230.972656 C 208.289062 231.429688 208.015625 231.902344 207.558594 232.023438 C 207.097656 232.148438 206.625 231.875 206.503906 231.414062 L 205.433594 227.421875 C 205.308594 226.960938 205.582031 226.488281 206.042969 226.367188 C 206.5 226.246094 206.972656 226.515625 207.097656 226.976562 Z M 226.492188 223.136719 L 224.382812 219.480469 C 224.144531 219.070312 223.621094 218.929688 223.210938 219.167969 C 222.796875 219.40625 222.660156 219.933594 222.894531 220.34375 L 225.003906 223.996094 C 225.242188 224.40625 225.769531 224.546875 226.179688 224.308594 C 226.589844 224.070312 226.730469 223.546875 226.492188 223.136719 Z M 242.171875 210.824219 C 242.507812 211.160156 242.507812 211.707031 242.171875 212.042969 C 241.835938 212.378906 241.289062 212.378906 240.953125 212.042969 L 237.878906 208.964844 C 237.539062 208.628906 237.539062 208.082031 237.878906 207.746094 C 238.214844 207.410156 238.757812 207.410156 239.09375 207.746094 Z M 254.125 194.875 L 250.230469 192.625 C 249.820312 192.390625 249.292969 192.53125 249.058594 192.941406 C 248.820312 193.355469 248.964844 193.878906 249.375 194.113281 L 253.269531 196.363281 C 253.679688 196.597656 254.207031 196.457031 254.441406 196.046875 C 254.675781 195.636719 254.535156 195.109375 254.125 194.875 Z M 261.546875 176.371094 C 262.003906 176.496094 262.277344 176.964844 262.15625 177.425781 C 262.035156 177.886719 261.5625 178.160156 261.101562 178.035156 L 256.589844 176.828125 C 256.128906 176.703125 255.855469 176.230469 255.976562 175.773438 C 256.101562 175.3125 256.574219 175.039062 257.03125 175.164062 Z M 263.925781 156.582031 C 264.402344 156.582031 264.789062 156.96875 264.789062 157.441406 C 264.789062 157.917969 264.402344 158.304688 263.925781 158.304688 L 259.035156 158.304688 C 258.558594 158.304688 258.171875 157.917969 258.171875 157.441406 C 258.171875 156.96875 258.558594 156.582031 259.035156 156.582031 Z M 261.101562 136.851562 C 261.5625 136.726562 262.035156 137 262.15625 137.460938 C 262.277344 137.917969 262.003906 138.390625 261.546875 138.511719 L 256.652344 139.824219 C 256.191406 139.949219 255.71875 139.675781 255.597656 139.214844 C 255.472656 138.757812 255.746094 138.285156 256.207031 138.160156 Z M 253.265625 118.523438 L 248.710938 121.152344 C 248.300781 121.390625 248.160156 121.917969 248.398438 122.328125 C 248.636719 122.738281 249.164062 122.878906 249.574219 122.640625 L 254.128906 120.011719 C 254.539062 119.773438 254.679688 119.246094 254.441406 118.835938 C 254.203125 118.425781 253.675781 118.285156 253.265625 118.523438 Z M 240.953125 102.84375 L 237.117188 106.679688 C 236.78125 107.019531 236.78125 107.5625 237.117188 107.898438 C 237.453125 108.238281 238 108.238281 238.335938 107.898438 L 242.171875 104.0625 C 242.507812 103.726562 242.507812 103.179688 242.171875 102.84375 C 241.835938 102.507812 241.289062 102.507812 240.953125 102.84375 Z M 225.003906 90.890625 L 222.238281 95.683594 C 222.003906 96.09375 222.144531 96.617188 222.558594 96.851562 C 222.96875 97.089844 223.492188 96.949219 223.726562 96.539062 L 226.492188 91.746094 C 226.730469 91.335938 226.589844 90.8125 226.179688 90.574219 C 225.765625 90.339844 225.242188 90.480469 225.003906 90.890625 Z M 205.589844 83.226562 C 205.710938 82.769531 206.183594 82.496094 206.644531 82.621094 C 207.101562 82.742188 207.375 83.214844 207.253906 83.671875 L 205.800781 89.089844 C 205.679688 89.550781 205.207031 89.824219 204.746094 89.699219 C 204.289062 89.578125 204.015625 89.105469 204.136719 88.648438 Z M 186.710938 70.292969 C 186.710938 69.816406 187.097656 69.429688 187.574219 69.429688 C 188.050781 69.429688 188.4375 69.816406 188.4375 70.292969 L 188.4375 76.222656 C 188.4375 76.699219 188.050781 77.085938 187.574219 77.085938 C 187.097656 77.085938 186.710938 76.699219 186.710938 76.222656 Z M 186.710938 81.089844 C 186.710938 80.613281 187.097656 80.226562 187.574219 80.226562 C 188.050781 80.226562 188.4375 80.613281 188.4375 81.089844 L 188.4375 86.730469 C 188.4375 87.207031 188.050781 87.59375 187.574219 87.59375 C 187.097656 87.59375 186.710938 87.207031 186.710938 86.730469 Z M 174.757812 261.304688 C 174.699219 261.773438 174.265625 262.105469 173.796875 262.042969 C 173.324219 261.984375 172.996094 261.550781 173.054688 261.082031 L 177.320312 228.945312 C 177.378906 228.476562 177.8125 228.144531 178.28125 228.207031 C 178.753906 228.265625 179.085938 228.699219 179.023438 229.167969 Z M 200.386719 55.101562 C 200.449219 54.632812 200.878906 54.300781 201.347656 54.363281 C 201.820312 54.421875 202.152344 54.855469 202.089844 55.324219 L 197.828125 87.460938 C 197.765625 87.929688 197.332031 88.261719 196.863281 88.199219 C 196.394531 88.140625 196.0625 87.707031 196.121094 87.238281 Z M 201.878906 261.109375 C 201.941406 261.582031 201.609375 262.011719 201.140625 262.074219 C 200.667969 262.132812 200.238281 261.800781 200.175781 261.332031 L 195.980469 229.1875 C 195.917969 228.71875 196.25 228.285156 196.71875 228.226562 C 197.191406 228.164062 197.621094 228.496094 197.683594 228.964844 Z M 173.265625 55.296875 C 173.203125 54.824219 173.535156 54.394531 174.007812 54.332031 C 174.476562 54.273438 174.910156 54.605469 174.96875 55.074219 L 179.167969 87.21875 C 179.230469 87.6875 178.898438 88.117188 178.425781 88.179688 C 177.957031 88.242188 177.523438 87.910156 177.464844 87.441406 Z M 228.03125 253.910156 C 228.214844 254.351562 228.003906 254.851562 227.566406 255.035156 C 227.125 255.214844 226.625 255.003906 226.441406 254.566406 L 214.066406 224.601562 C 213.886719 224.160156 214.097656 223.660156 214.535156 223.480469 C 214.972656 223.296875 215.476562 223.507812 215.65625 223.945312 Z M 147.113281 62.496094 C 146.933594 62.054688 147.144531 61.550781 147.582031 61.371094 C 148.019531 61.191406 148.523438 61.402344 148.703125 61.839844 L 161.078125 91.804688 C 161.257812 92.246094 161.050781 92.746094 160.613281 92.925781 C 160.171875 93.105469 159.667969 92.898438 159.488281 92.457031 Z M 251.414062 240.160156 L 231.707031 214.425781 C 231.417969 214.046875 230.878906 213.976562 230.5 214.261719 C 230.121094 214.550781 230.050781 215.09375 230.339844 215.46875 L 250.046875 241.203125 C 250.332031 241.582031 250.875 241.652344 251.25 241.367188 C 251.628906 241.078125 251.699219 240.539062 251.414062 240.160156 Z M 123.734375 76.246094 L 143.4375 101.980469 C 143.726562 102.359375 144.269531 102.429688 144.644531 102.140625 C 145.023438 101.851562 145.09375 101.3125 144.808594 100.9375 L 125.101562 75.203125 C 124.8125 74.824219 124.273438 74.75 123.894531 75.039062 C 123.519531 75.328125 123.445312 75.867188 123.734375 76.246094 Z M 270.449219 220.847656 C 270.824219 221.136719 270.894531 221.675781 270.605469 222.050781 C 270.3125 222.425781 269.773438 222.496094 269.398438 222.207031 L 243.703125 202.449219 C 243.328125 202.160156 243.257812 201.617188 243.550781 201.242188 C 243.839844 200.867188 244.378906 200.796875 244.753906 201.089844 Z M 104.695312 95.558594 C 104.320312 95.269531 104.25 94.730469 104.542969 94.355469 C 104.832031 93.976562 105.371094 93.910156 105.746094 94.199219 L 131.441406 113.957031 C 131.816406 114.246094 131.886719 114.789062 131.597656 115.164062 C 131.308594 115.539062 130.769531 115.609375 130.390625 115.316406 Z M 283.859375 197.269531 C 284.296875 197.453125 284.507812 197.957031 284.324219 198.394531 C 284.140625 198.832031 283.636719 199.039062 283.199219 198.859375 L 253.257812 186.421875 C 252.820312 186.238281 252.613281 185.734375 252.792969 185.296875 C 252.976562 184.859375 253.480469 184.648438 253.917969 184.832031 Z M 91.285156 119.136719 C 90.847656 118.953125 90.640625 118.449219 90.820312 118.011719 C 91.003906 117.574219 91.507812 117.363281 91.945312 117.546875 L 121.886719 129.984375 C 122.324219 130.167969 122.535156 130.671875 122.351562 131.109375 C 122.167969 131.550781 121.664062 131.757812 121.226562 131.574219 Z M 290.671875 171.015625 C 291.144531 171.078125 291.472656 171.507812 291.414062 171.980469 C 291.351562 172.449219 290.921875 172.78125 290.453125 172.71875 L 258.316406 168.457031 C 257.847656 168.394531 257.515625 167.964844 257.574219 167.492188 C 257.636719 167.023438 258.066406 166.691406 258.539062 166.753906 Z M 84.472656 145.390625 C 84.003906 145.328125 83.671875 144.898438 83.730469 144.425781 C 83.792969 143.957031 84.222656 143.625 84.695312 143.6875 L 116.828125 147.949219 C 117.300781 148.011719 117.632812 148.441406 117.570312 148.914062 C 117.507812 149.382812 117.078125 149.714844 116.609375 149.652344 Z M 290.480469 143.894531 C 290.949219 143.835938 291.382812 144.164062 291.445312 144.636719 C 291.503906 145.105469 291.171875 145.539062 290.703125 145.597656 L 258.558594 149.796875 C 258.089844 149.859375 257.65625 149.527344 257.597656 149.058594 C 257.535156 148.585938 257.867188 148.15625 258.335938 148.09375 Z M 84.664062 172.511719 C 84.195312 172.574219 83.765625 172.242188 83.703125 171.769531 C 83.640625 171.300781 83.972656 170.867188 84.445312 170.804688 L 116.585938 166.609375 C 117.058594 166.546875 117.488281 166.878906 117.550781 167.347656 C 117.613281 167.820312 117.28125 168.25 116.808594 168.3125 Z M 283.28125 117.742188 C 283.722656 117.5625 284.222656 117.773438 284.402344 118.210938 C 284.582031 118.652344 284.375 119.152344 283.9375 119.332031 L 253.96875 131.710938 C 253.53125 131.890625 253.027344 131.679688 252.847656 131.242188 C 252.667969 130.800781 252.878906 130.300781 253.316406 130.121094 Z M 91.863281 198.660156 C 91.425781 198.84375 90.921875 198.632812 90.742188 198.195312 C 90.5625 197.753906 90.773438 197.253906 91.210938 197.074219 L 121.175781 184.695312 C 121.613281 184.515625 122.117188 184.726562 122.296875 185.164062 C 122.476562 185.605469 122.269531 186.105469 121.828125 186.285156 Z M 269.53125 94.363281 L 243.792969 114.070312 C 243.417969 114.359375 243.347656 114.898438 243.632812 115.277344 C 243.921875 115.652344 244.460938 115.726562 244.839844 115.4375 L 270.574219 95.730469 C 270.953125 95.441406 271.023438 94.902344 270.734375 94.523438 C 270.449219 94.148438 269.90625 94.074219 269.53125 94.363281 Z M 105.617188 222.042969 L 131.351562 202.335938 C 131.726562 202.046875 131.800781 201.507812 131.511719 201.128906 C 131.222656 200.753906 130.683594 200.679688 130.304688 200.96875 L 104.570312 220.675781 C 104.195312 220.960938 104.121094 221.503906 104.410156 221.882812 C 104.699219 222.257812 105.238281 222.332031 105.617188 222.042969 Z M 250.21875 75.328125 C 250.507812 74.953125 251.046875 74.882812 251.421875 75.171875 C 251.796875 75.460938 251.867188 76 251.578125 76.378906 L 231.820312 102.074219 C 231.527344 102.449219 230.988281 102.515625 230.613281 102.226562 C 230.238281 101.9375 230.167969 101.398438 230.460938 101.023438 Z M 124.929688 241.078125 C 124.640625 241.453125 124.101562 241.523438 123.722656 241.234375 C 123.347656 240.945312 123.28125 240.402344 123.570312 240.027344 L 143.328125 214.332031 C 143.617188 213.957031 144.15625 213.890625 144.53125 214.179688 C 144.910156 214.46875 144.976562 215.007812 144.6875 215.382812 Z M 226.640625 61.917969 C 226.820312 61.480469 227.324219 61.269531 227.765625 61.453125 C 228.203125 61.632812 228.410156 62.140625 228.230469 62.578125 L 215.792969 92.515625 C 215.609375 92.957031 215.105469 93.164062 214.667969 92.980469 C 214.226562 92.800781 214.019531 92.296875 214.199219 91.855469 Z M 148.507812 254.488281 C 148.324219 254.929688 147.820312 255.136719 147.382812 254.953125 C 146.941406 254.769531 146.734375 254.265625 146.917969 253.828125 L 159.355469 223.886719 C 159.535156 223.449219 160.039062 223.242188 160.480469 223.421875 C 160.917969 223.605469 161.125 224.109375 160.945312 224.546875 Z M 164.183594 73.484375 C 164.0625 73.023438 164.335938 72.554688 164.792969 72.429688 C 165.253906 72.308594 165.726562 72.578125 165.847656 73.039062 L 167.382812 78.769531 C 167.507812 79.226562 167.234375 79.699219 166.773438 79.824219 C 166.316406 79.945312 165.84375 79.671875 165.71875 79.214844 L 164.183594 73.484375 " fill-opacity="1" fill-rule="evenodd"/><path fill="#f19e05" d="M 143.253906 82.394531 C 143.015625 81.984375 143.160156 81.460938 143.570312 81.222656 C 143.980469 80.988281 144.503906 81.128906 144.742188 81.542969 L 147.707031 86.675781 C 147.945312 87.085938 147.800781 87.613281 147.390625 87.847656 C 146.980469 88.085938 146.457031 87.941406 146.21875 87.53125 Z M 125.339844 96.425781 L 129.53125 100.621094 C 129.871094 100.957031 130.414062 100.957031 130.75 100.621094 C 131.089844 100.285156 131.089844 99.738281 130.75 99.402344 L 126.558594 95.207031 C 126.222656 94.871094 125.675781 94.871094 125.339844 95.207031 C 125.003906 95.546875 125.003906 96.089844 125.339844 96.425781 Z M 111.667969 114.613281 L 116.804688 117.578125 C 117.214844 117.816406 117.742188 117.675781 117.980469 117.265625 C 118.21875 116.851562 118.078125 116.328125 117.664062 116.089844 L 112.527344 113.121094 C 112.117188 112.886719 111.589844 113.027344 111.351562 113.4375 C 111.117188 113.847656 111.257812 114.375 111.667969 114.613281 Z M 103.167969 135.71875 C 102.710938 135.59375 102.4375 135.125 102.558594 134.664062 C 102.683594 134.203125 103.15625 133.933594 103.613281 134.054688 L 109.34375 135.589844 C 109.800781 135.710938 110.074219 136.183594 109.953125 136.644531 C 109.828125 137.101562 109.359375 137.375 108.898438 137.253906 Z M 100.421875 158.304688 C 99.945312 158.304688 99.558594 157.917969 99.558594 157.441406 C 99.558594 156.96875 99.945312 156.582031 100.421875 156.582031 L 106.351562 156.582031 C 106.828125 156.582031 107.214844 156.96875 107.214844 157.441406 C 107.214844 157.917969 106.828125 158.304688 106.351562 158.304688 Z M 103.613281 180.832031 C 103.15625 180.953125 102.683594 180.679688 102.558594 180.222656 C 102.4375 179.761719 102.710938 179.289062 103.167969 179.167969 L 108.898438 177.632812 C 109.359375 177.511719 109.828125 177.78125 109.953125 178.242188 C 110.074219 178.699219 109.800781 179.171875 109.34375 179.296875 Z M 112.523438 201.761719 C 112.113281 202 111.589844 201.855469 111.351562 201.445312 C 111.117188 201.035156 111.257812 200.511719 111.667969 200.273438 L 116.808594 197.308594 C 117.21875 197.074219 117.742188 197.214844 117.980469 197.625 C 118.214844 198.035156 118.074219 198.5625 117.664062 198.796875 Z M 126.558594 219.679688 L 130.75 215.484375 C 131.085938 215.148438 131.085938 214.601562 130.75 214.265625 C 130.414062 213.929688 129.867188 213.929688 129.53125 214.265625 L 125.339844 218.457031 C 125 218.796875 125 219.339844 125.339844 219.679688 C 125.675781 220.015625 126.21875 220.015625 126.558594 219.679688 Z M 144.742188 233.347656 L 147.707031 228.210938 C 147.945312 227.800781 147.804688 227.273438 147.394531 227.039062 C 146.984375 226.800781 146.457031 226.9375 146.21875 227.351562 L 143.253906 232.488281 C 143.015625 232.898438 143.15625 233.425781 143.566406 233.664062 C 143.976562 233.902344 144.503906 233.761719 144.742188 233.347656 Z M 165.847656 241.847656 C 165.726562 242.304688 165.253906 242.578125 164.792969 242.453125 C 164.335938 242.332031 164.0625 241.859375 164.183594 241.402344 L 165.71875 235.671875 C 165.84375 235.210938 166.316406 234.9375 166.773438 235.0625 C 167.234375 235.183594 167.507812 235.65625 167.382812 236.117188 Z M 188.433594 244.59375 C 188.433594 245.070312 188.046875 245.457031 187.574219 245.457031 C 187.097656 245.457031 186.710938 245.070312 186.710938 244.59375 L 186.710938 238.660156 C 186.710938 238.1875 187.097656 237.800781 187.574219 237.800781 C 188.046875 237.800781 188.433594 238.1875 188.433594 238.660156 Z M 210.960938 241.402344 C 211.082031 241.859375 210.8125 242.332031 210.351562 242.453125 C 209.890625 242.578125 209.421875 242.304688 209.296875 241.847656 L 207.761719 236.117188 C 207.640625 235.65625 207.910156 235.183594 208.371094 235.0625 C 208.832031 234.9375 209.304688 235.210938 209.425781 235.671875 Z M 231.894531 232.488281 C 232.128906 232.898438 231.988281 233.421875 231.578125 233.660156 C 231.167969 233.898438 230.640625 233.757812 230.402344 233.347656 L 227.4375 228.210938 C 227.199219 227.800781 227.339844 227.273438 227.753906 227.035156 C 228.164062 226.796875 228.6875 226.9375 228.925781 227.347656 Z M 249.808594 218.457031 L 245.613281 214.261719 C 245.277344 213.925781 244.730469 213.925781 244.394531 214.261719 C 244.058594 214.601562 244.058594 215.144531 244.394531 215.484375 L 248.589844 219.675781 C 248.925781 220.011719 249.46875 220.011719 249.808594 219.675781 C 250.144531 219.339844 250.144531 218.792969 249.808594 218.457031 Z M 263.480469 200.273438 L 258.339844 197.308594 C 257.929688 197.070312 257.40625 197.210938 257.164062 197.621094 C 256.929688 198.03125 257.070312 198.558594 257.480469 198.796875 L 262.617188 201.761719 C 263.027344 202 263.554688 201.859375 263.792969 201.449219 C 264.03125 201.039062 263.890625 200.511719 263.480469 200.273438 Z M 271.976562 179.167969 C 272.4375 179.289062 272.707031 179.761719 272.585938 180.222656 C 272.464844 180.679688 271.992188 180.953125 271.53125 180.832031 L 265.800781 179.296875 C 265.34375 179.171875 265.070312 178.699219 265.191406 178.242188 C 265.316406 177.78125 265.789062 177.511719 266.25 177.632812 Z M 274.722656 156.582031 C 275.199219 156.582031 275.585938 156.96875 275.585938 157.441406 C 275.585938 157.917969 275.199219 158.304688 274.722656 158.304688 L 268.792969 158.304688 C 268.316406 158.304688 267.929688 157.917969 267.929688 157.441406 C 267.929688 156.96875 268.316406 156.582031 268.792969 156.582031 Z M 271.53125 134.054688 C 271.992188 133.933594 272.464844 134.203125 272.585938 134.664062 C 272.707031 135.125 272.4375 135.597656 271.976562 135.71875 L 266.25 137.253906 C 265.789062 137.375 265.316406 137.101562 265.191406 136.644531 C 265.070312 136.183594 265.34375 135.710938 265.800781 135.589844 Z M 262.621094 113.125 C 263.03125 112.886719 263.558594 113.03125 263.792969 113.441406 C 264.027344 113.851562 263.886719 114.375 263.476562 114.613281 L 258.339844 117.578125 C 257.929688 117.8125 257.402344 117.671875 257.167969 117.261719 C 256.929688 116.847656 257.074219 116.324219 257.484375 116.089844 Z M 248.589844 95.210938 L 244.394531 99.402344 C 244.058594 99.738281 244.058594 100.285156 244.394531 100.621094 C 244.730469 100.957031 245.277344 100.957031 245.613281 100.621094 L 249.808594 96.425781 C 250.144531 96.089844 250.144531 95.546875 249.808594 95.210938 C 249.472656 94.871094 248.925781 94.871094 248.589844 95.210938 Z M 230.40625 81.542969 L 227.4375 86.675781 C 227.203125 87.085938 227.34375 87.613281 227.757812 87.847656 C 228.167969 88.085938 228.691406 87.941406 228.925781 87.53125 L 231.894531 82.394531 C 232.128906 81.984375 231.984375 81.460938 231.574219 81.226562 C 231.164062 80.988281 230.640625 81.128906 230.40625 81.542969 Z M 208.382812 72.796875 C 208.507812 72.339844 208.980469 72.066406 209.4375 72.191406 C 209.898438 72.3125 210.167969 72.785156 210.046875 73.242188 L 208.511719 78.972656 C 208.390625 79.429688 207.917969 79.703125 207.457031 79.582031 C 207 79.460938 206.726562 78.988281 206.847656 78.527344 Z M 166.980469 83.914062 C 166.855469 83.457031 167.128906 82.980469 167.589844 82.859375 C 168.046875 82.738281 168.519531 83.011719 168.644531 83.46875 L 170.09375 88.882812 C 170.214844 89.339844 169.941406 89.8125 169.484375 89.9375 C 169.023438 90.058594 168.550781 89.785156 168.429688 89.328125 Z M 148.652344 91.75 L 151.417969 96.542969 C 151.65625 96.953125 152.183594 97.089844 152.59375 96.855469 C 153.003906 96.617188 153.144531 96.089844 152.90625 95.679688 L 150.140625 90.886719 C 149.902344 90.476562 149.375 90.339844 148.964844 90.574219 C 148.554688 90.8125 148.414062 91.339844 148.652344 91.75 Z M 132.972656 104.0625 C 132.636719 103.726562 132.636719 103.179688 132.972656 102.84375 C 133.308594 102.507812 133.855469 102.507812 134.191406 102.84375 L 138.027344 106.679688 C 138.367188 107.019531 138.367188 107.5625 138.027344 107.898438 C 137.691406 108.238281 137.148438 108.238281 136.8125 107.898438 Z M 121.023438 120.011719 L 125.578125 122.640625 C 125.988281 122.875 126.511719 122.734375 126.75 122.324219 C 126.984375 121.914062 126.84375 121.386719 126.433594 121.152344 L 121.878906 118.523438 C 121.464844 118.289062 120.941406 118.429688 120.703125 118.839844 C 120.46875 119.25 120.609375 119.773438 121.023438 120.011719 Z M 113.597656 138.511719 C 113.140625 138.390625 112.867188 137.917969 112.988281 137.460938 C 113.113281 137 113.585938 136.726562 114.042969 136.851562 L 118.941406 138.160156 C 119.398438 138.285156 119.671875 138.757812 119.550781 139.214844 C 119.425781 139.675781 118.953125 139.949219 118.496094 139.824219 Z M 111.21875 158.304688 C 110.742188 158.304688 110.359375 157.917969 110.359375 157.445312 C 110.359375 156.96875 110.742188 156.582031 111.21875 156.582031 L 116.113281 156.582031 C 116.589844 156.582031 116.972656 156.96875 116.972656 157.445312 C 116.972656 157.917969 116.589844 158.304688 116.113281 158.304688 Z M 114.042969 178.035156 C 113.585938 178.160156 113.113281 177.886719 112.988281 177.425781 C 112.867188 176.96875 113.140625 176.496094 113.597656 176.375 L 118.113281 175.164062 C 118.574219 175.039062 119.046875 175.3125 119.167969 175.773438 C 119.289062 176.234375 119.015625 176.703125 118.558594 176.828125 Z M 121.878906 196.363281 L 125.777344 194.117188 C 126.1875 193.878906 126.328125 193.351562 126.089844 192.941406 C 125.851562 192.53125 125.324219 192.390625 124.914062 192.628906 L 121.019531 194.875 C 120.609375 195.113281 120.46875 195.640625 120.707031 196.050781 C 120.941406 196.460938 121.46875 196.601562 121.878906 196.363281 Z M 134.191406 212.042969 C 133.855469 212.378906 133.308594 212.378906 132.972656 212.042969 C 132.636719 211.707031 132.636719 211.160156 132.972656 210.824219 L 136.050781 207.746094 C 136.386719 207.410156 136.933594 207.410156 137.269531 207.746094 C 137.605469 208.082031 137.605469 208.628906 137.269531 208.964844 Z M 150.140625 223.996094 L 152.25 220.34375 C 152.488281 219.933594 152.347656 219.40625 151.9375 219.167969 C 151.527344 218.929688 151 219.070312 150.761719 219.480469 L 148.652344 223.136719 C 148.414062 223.546875 148.554688 224.074219 148.964844 224.3125 C 149.375 224.550781 149.902344 224.410156 150.140625 223.996094 Z M 168.644531 231.417969 C 168.519531 231.875 168.046875 232.148438 167.589844 232.023438 C 167.128906 231.902344 166.855469 231.429688 166.980469 230.972656 L 168.050781 226.976562 C 168.171875 226.515625 168.644531 226.246094 169.105469 226.367188 C 169.5625 226.488281 169.835938 226.960938 169.714844 227.421875 Z M 188.433594 233.796875 C 188.433594 234.273438 188.046875 234.65625 187.574219 234.65625 C 187.097656 234.65625 186.710938 234.273438 186.710938 233.796875 L 186.710938 229.671875 C 186.710938 229.195312 187.097656 228.8125 187.574219 228.8125 C 188.046875 228.8125 188.433594 229.195312 188.433594 229.671875 Z M 208.167969 230.972656 C 208.289062 231.429688 208.015625 231.902344 207.558594 232.023438 C 207.097656 232.148438 206.625 231.875 206.503906 231.414062 L 205.433594 227.421875 C 205.308594 226.960938 205.582031 226.488281 206.042969 226.367188 C 206.5 226.246094 206.972656 226.515625 207.097656 226.976562 Z M 226.492188 223.136719 L 224.382812 219.480469 C 224.144531 219.070312 223.621094 218.929688 223.210938 219.167969 C 222.796875 219.40625 222.660156 219.933594 222.894531 220.34375 L 225.003906 223.996094 C 225.242188 224.40625 225.769531 224.546875 226.179688 224.308594 C 226.589844 224.070312 226.730469 223.546875 226.492188 223.136719 Z M 242.171875 210.824219 C 242.507812 211.160156 242.507812 211.707031 242.171875 212.042969 C 241.835938 212.378906 241.289062 212.378906 240.953125 212.042969 L 237.878906 208.964844 C 237.539062 208.628906 237.539062 208.082031 237.878906 207.746094 C 238.214844 207.410156 238.757812 207.410156 239.09375 207.746094 Z M 254.125 194.875 L 250.230469 192.625 C 249.820312 192.390625 249.292969 192.53125 249.058594 192.941406 C 248.820312 193.355469 248.964844 193.878906 249.375 194.113281 L 253.269531 196.363281 C 253.679688 196.597656 254.207031 196.457031 254.441406 196.046875 C 254.675781 195.636719 254.535156 195.109375 254.125 194.875 Z M 261.546875 176.371094 C 262.003906 176.496094 262.277344 176.964844 262.15625 177.425781 C 262.035156 177.886719 261.5625 178.160156 261.101562 178.035156 L 256.589844 176.828125 C 256.128906 176.703125 255.855469 176.230469 255.976562 175.773438 C 256.101562 175.3125 256.574219 175.039062 257.03125 175.164062 Z M 263.925781 156.582031 C 264.402344 156.582031 264.789062 156.96875 264.789062 157.441406 C 264.789062 157.917969 264.402344 158.304688 263.925781 158.304688 L 259.035156 158.304688 C 258.558594 158.304688 258.171875 157.917969 258.171875 157.441406 C 258.171875 156.96875 258.558594 156.582031 259.035156 156.582031 Z M 261.101562 136.851562 C 261.5625 136.726562 262.035156 137 262.15625 137.460938 C 262.277344 137.917969 262.003906 138.390625 261.546875 138.511719 L 256.652344 139.824219 C 256.191406 139.949219 255.71875 139.675781 255.597656 139.214844 C 255.472656 138.757812 255.746094 138.285156 256.207031 138.160156 Z M 253.265625 118.523438 L 248.710938 121.152344 C 248.300781 121.390625 248.160156 121.917969 248.398438 122.328125 C 248.636719 122.738281 249.164062 122.878906 249.574219 122.640625 L 254.128906 120.011719 C 254.539062 119.773438 254.679688 119.246094 254.441406 118.835938 C 254.203125 118.425781 253.675781 118.285156 253.265625 118.523438 Z M 240.953125 102.84375 L 237.117188 106.679688 C 236.78125 107.019531 236.78125 107.5625 237.117188 107.898438 C 237.453125 108.238281 238 108.238281 238.335938 107.898438 L 242.171875 104.0625 C 242.507812 103.726562 242.507812 103.179688 242.171875 102.84375 C 241.835938 102.507812 241.289062 102.507812 240.953125 102.84375 Z M 225.003906 90.890625 L 222.238281 95.683594 C 222.003906 96.09375 222.144531 96.617188 222.558594 96.851562 C 222.96875 97.089844 223.492188 96.949219 223.726562 96.539062 L 226.492188 91.746094 C 226.730469 91.335938 226.589844 90.8125 226.179688 90.574219 C 225.765625 90.339844 225.242188 90.480469 225.003906 90.890625 Z M 205.589844 83.226562 C 205.710938 82.769531 206.183594 82.496094 206.644531 82.621094 C 207.101562 82.742188 207.375 83.214844 207.253906 83.671875 L 205.800781 89.089844 C 205.679688 89.550781 205.207031 89.824219 204.746094 89.699219 C 204.289062 89.578125 204.015625 89.105469 204.136719 88.648438 Z M 186.710938 70.292969 C 186.710938 69.816406 187.097656 69.429688 187.574219 69.429688 C 188.050781 69.429688 188.4375 69.816406 188.4375 70.292969 L 188.4375 76.222656 C 188.4375 76.699219 188.050781 77.085938 187.574219 77.085938 C 187.097656 77.085938 186.710938 76.699219 186.710938 76.222656 Z M 186.710938 81.089844 C 186.710938 80.613281 187.097656 80.226562 187.574219 80.226562 C 188.050781 80.226562 188.4375 80.613281 188.4375 81.089844 L 188.4375 86.730469 C 188.4375 87.207031 188.050781 87.59375 187.574219 87.59375 C 187.097656 87.59375 186.710938 87.207031 186.710938 86.730469 Z M 174.757812 261.304688 C 174.699219 261.773438 174.265625 262.105469 173.796875 262.042969 C 173.324219 261.984375 172.996094 261.550781 173.054688 261.082031 L 177.320312 228.945312 C 177.378906 228.476562 177.8125 228.144531 178.28125 228.207031 C 178.753906 228.265625 179.085938 228.699219 179.023438 229.167969 Z M 200.386719 55.101562 C 200.449219 54.632812 200.878906 54.300781 201.347656 54.363281 C 201.820312 54.421875 202.152344 54.855469 202.089844 55.324219 L 197.828125 87.460938 C 197.765625 87.929688 197.332031 88.261719 196.863281 88.199219 C 196.394531 88.140625 196.0625 87.707031 196.121094 87.238281 Z M 201.878906 261.109375 C 201.941406 261.582031 201.609375 262.011719 201.140625 262.074219 C 200.667969 262.132812 200.238281 261.800781 200.175781 261.332031 L 195.980469 229.1875 C 195.917969 228.71875 196.25 228.285156 196.71875 228.226562 C 197.191406 228.164062 197.621094 228.496094 197.683594 228.964844 Z M 173.265625 55.296875 C 173.203125 54.824219 173.535156 54.394531 174.007812 54.332031 C 174.476562 54.273438 174.910156 54.605469 174.96875 55.074219 L 179.167969 87.21875 C 179.230469 87.6875 178.898438 88.117188 178.425781 88.179688 C 177.957031 88.242188 177.523438 87.910156 177.464844 87.441406 Z M 228.03125 253.910156 C 228.214844 254.351562 228.003906 254.851562 227.566406 255.035156 C 227.125 255.214844 226.625 255.003906 226.441406 254.566406 L 214.066406 224.601562 C 213.886719 224.160156 214.097656 223.660156 214.535156 223.480469 C 214.972656 223.296875 215.476562 223.507812 215.65625 223.945312 Z M 147.113281 62.496094 C 146.933594 62.054688 147.144531 61.550781 147.582031 61.371094 C 148.019531 61.191406 148.523438 61.402344 148.703125 61.839844 L 161.078125 91.804688 C 161.257812 92.246094 161.050781 92.746094 160.613281 92.925781 C 160.171875 93.105469 159.667969 92.898438 159.488281 92.457031 Z M 251.414062 240.160156 L 231.707031 214.425781 C 231.417969 214.046875 230.878906 213.976562 230.5 214.261719 C 230.121094 214.550781 230.050781 215.09375 230.339844 215.46875 L 250.046875 241.203125 C 250.332031 241.582031 250.875 241.652344 251.25 241.367188 C 251.628906 241.078125 251.699219 240.539062 251.414062 240.160156 Z M 123.734375 76.246094 L 143.4375 101.980469 C 143.726562 102.359375 144.269531 102.429688 144.644531 102.140625 C 145.023438 101.851562 145.09375 101.3125 144.808594 100.9375 L 125.101562 75.203125 C 124.8125 74.824219 124.273438 74.75 123.894531 75.039062 C 123.519531 75.328125 123.445312 75.867188 123.734375 76.246094 Z M 270.449219 220.847656 C 270.824219 221.136719 270.894531 221.675781 270.605469 222.050781 C 270.3125 222.425781 269.773438 222.496094 269.398438 222.207031 L 243.703125 202.449219 C 243.328125 202.160156 243.257812 201.617188 243.550781 201.242188 C 243.839844 200.867188 244.378906 200.796875 244.753906 201.089844 Z M 104.695312 95.558594 C 104.320312 95.269531 104.25 94.730469 104.542969 94.355469 C 104.832031 93.976562 105.371094 93.910156 105.746094 94.199219 L 131.441406 113.957031 C 131.816406 114.246094 131.886719 114.789062 131.597656 115.164062 C 131.308594 115.539062 130.769531 115.609375 130.390625 115.316406 Z M 283.859375 197.269531 C 284.296875 197.453125 284.507812 197.957031 284.324219 198.394531 C 284.140625 198.832031 283.636719 199.039062 283.199219 198.859375 L 253.257812 186.421875 C 252.820312 186.238281 252.613281 185.734375 252.792969 185.296875 C 252.976562 184.859375 253.480469 184.648438 253.917969 184.832031 Z M 91.285156 119.136719 C 90.847656 118.953125 90.640625 118.449219 90.820312 118.011719 C 91.003906 117.574219 91.507812 117.363281 91.945312 117.546875 L 121.886719 129.984375 C 122.324219 130.167969 122.535156 130.671875 122.351562 131.109375 C 122.167969 131.550781 121.664062 131.757812 121.226562 131.574219 Z M 290.671875 171.015625 C 291.144531 171.078125 291.472656 171.507812 291.414062 171.980469 C 291.351562 172.449219 290.921875 172.78125 290.453125 172.71875 L 258.316406 168.457031 C 257.847656 168.394531 257.515625 167.964844 257.574219 167.492188 C 257.636719 167.023438 258.066406 166.691406 258.539062 166.753906 Z M 84.472656 145.390625 C 84.003906 145.328125 83.671875 144.898438 83.730469 144.425781 C 83.792969 143.957031 84.222656 143.625 84.695312 143.6875 L 116.828125 147.949219 C 117.300781 148.011719 117.632812 148.441406 117.570312 148.914062 C 117.507812 149.382812 117.078125 149.714844 116.609375 149.652344 Z M 290.480469 143.894531 C 290.949219 143.835938 291.382812 144.164062 291.445312 144.636719 C 291.503906 145.105469 291.171875 145.539062 290.703125 145.597656 L 258.558594 149.796875 C 258.089844 149.859375 257.65625 149.527344 257.597656 149.058594 C 257.535156 148.585938 257.867188 148.15625 258.335938 148.09375 Z M 84.664062 172.511719 C 84.195312 172.574219 83.765625 172.242188 83.703125 171.769531 C 83.640625 171.300781 83.972656 170.867188 84.445312 170.804688 L 116.585938 166.609375 C 117.058594 166.546875 117.488281 166.878906 117.550781 167.347656 C 117.613281 167.820312 117.28125 168.25 116.808594 168.3125 Z M 283.28125 117.742188 C 283.722656 117.5625 284.222656 117.773438 284.402344 118.210938 C 284.582031 118.652344 284.375 119.152344 283.9375 119.332031 L 253.96875 131.710938 C 253.53125 131.890625 253.027344 131.679688 252.847656 131.242188 C 252.667969 130.800781 252.878906 130.300781 253.316406 130.121094 Z M 91.863281 198.660156 C 91.425781 198.84375 90.921875 198.632812 90.742188 198.195312 C 90.5625 197.753906 90.773438 197.253906 91.210938 197.074219 L 121.175781 184.695312 C 121.613281 184.515625 122.117188 184.726562 122.296875 185.164062 C 122.476562 185.605469 122.269531 186.105469 121.828125 186.285156 Z M 269.53125 94.363281 L 243.792969 114.070312 C 243.417969 114.359375 243.347656 114.898438 243.632812 115.277344 C 243.921875 115.652344 244.460938 115.726562 244.839844 115.4375 L 270.574219 95.730469 C 270.953125 95.441406 271.023438 94.902344 270.734375 94.523438 C 270.449219 94.148438 269.90625 94.074219 269.53125 94.363281 Z M 105.617188 222.042969 L 131.351562 202.335938 C 131.726562 202.046875 131.800781 201.507812 131.511719 201.128906 C 131.222656 200.753906 130.683594 200.679688 130.304688 200.96875 L 104.570312 220.675781 C 104.195312 220.960938 104.121094 221.503906 104.410156 221.882812 C 104.699219 222.257812 105.238281 222.332031 105.617188 222.042969 Z M 250.21875 75.328125 C 250.507812 74.953125 251.046875 74.882812 251.421875 75.171875 C 251.796875 75.460938 251.867188 76 251.578125 76.378906 L 231.820312 102.074219 C 231.527344 102.449219 230.988281 102.515625 230.613281 102.226562 C 230.238281 101.9375 230.167969 101.398438 230.460938 101.023438 Z M 124.929688 241.078125 C 124.640625 241.453125 124.101562 241.523438 123.722656 241.234375 C 123.347656 240.945312 123.28125 240.402344 123.570312 240.027344 L 143.328125 214.332031 C 143.617188 213.957031 144.15625 213.890625 144.53125 214.179688 C 144.910156 214.46875 144.976562 215.007812 144.6875 215.382812 Z M 226.640625 61.917969 C 226.820312 61.480469 227.324219 61.269531 227.765625 61.453125 C 228.203125 61.632812 228.410156 62.140625 228.230469 62.578125 L 215.792969 92.515625 C 215.609375 92.957031 215.105469 93.164062 214.667969 92.980469 C 214.226562 92.800781 214.019531 92.296875 214.199219 91.855469 Z M 148.507812 254.488281 C 148.324219 254.929688 147.820312 255.136719 147.382812 254.953125 C 146.941406 254.769531 146.734375 254.265625 146.917969 253.828125 L 159.355469 223.886719 C 159.535156 223.449219 160.039062 223.242188 160.480469 223.421875 C 160.917969 223.605469 161.125 224.109375 160.945312 224.546875 Z M 164.183594 73.484375 C 164.0625 73.023438 164.335938 72.554688 164.792969 72.429688 C 165.253906 72.308594 165.726562 72.578125 165.847656 73.039062 L 167.382812 78.769531 C 167.507812 79.226562 167.234375 79.699219 166.773438 79.824219 C 166.316406 79.945312 165.84375 79.671875 165.71875 79.214844 L 164.183594 73.484375 " fill-opacity="1" fill-rule="evenodd"/></g></svg>